<svg xmlns="http://www.w3.org/2000/svg" xmlns:xlink="http://www.w3.org/1999/xlink" width="500" zoomAndPan="magnify" viewBox="0 0 375 374.999991" height="500" preserveAspectRatio="xMidYMid meet" version="1.0"><defs><g/><clipPath id="ddfc6d7a45"><path d="M 11 185 L 281 185 L 281 282 L 11 282 Z M 11 185 " clip-rule="nonzero"/></clipPath><clipPath id="d79167c9b2"><path d="M 25.542969 67.363281 L 371.535156 104.691406 L 349.652344 307.515625 L 3.660156 270.183594 Z M 25.542969 67.363281 " clip-rule="nonzero"/></clipPath><clipPath id="c820ec5bae"><path d="M 25.542969 67.363281 L 371.535156 104.691406 L 349.652344 307.515625 L 3.660156 270.183594 Z M 25.542969 67.363281 " clip-rule="nonzero"/></clipPath><clipPath id="e7b66bad47"><path d="M 96 94 L 364 94 L 364 189 L 96 189 Z M 96 94 " clip-rule="nonzero"/></clipPath><clipPath id="e5b3742a1a"><path d="M 25.542969 67.363281 L 371.535156 104.691406 L 349.652344 307.515625 L 3.660156 270.183594 Z M 25.542969 67.363281 " clip-rule="nonzero"/></clipPath><clipPath id="de8b01a294"><path d="M 25.542969 67.363281 L 371.535156 104.691406 L 349.652344 307.515625 L 3.660156 270.183594 Z M 25.542969 67.363281 " clip-rule="nonzero"/></clipPath><clipPath id="f182e4ceb5"><path d="M 13.589844 124.421875 L 84.839844 124.421875 L 84.839844 195.671875 L 13.589844 195.671875 Z M 13.589844 124.421875 " clip-rule="nonzero"/></clipPath><clipPath id="3661b9418f"><path d="M 29.664062 140.496094 L 68.664062 140.496094 L 68.664062 179.496094 L 29.664062 179.496094 Z M 29.664062 140.496094 " clip-rule="nonzero"/></clipPath><clipPath id="7a3d3e4d71"><path d="M 303.296875 179.507812 L 371.546875 179.507812 L 371.546875 247.757812 L 303.296875 247.757812 Z M 303.296875 179.507812 " clip-rule="nonzero"/></clipPath><clipPath id="a4c406c6a0"><path d="M 318.761719 194.972656 L 356 194.972656 L 356 232.472656 L 318.761719 232.472656 Z M 318.761719 194.972656 " clip-rule="nonzero"/></clipPath></defs><rect x="-37.5" width="450" fill="none" y="-37.499999" height="449.999989" fill-opacity="1"/><rect x="-37.5" width="450" fill="none" y="-37.499999" height="449.999989" fill-opacity="1"/><g clip-path="url(#ddfc6d7a45)"><g clip-path="url(#d79167c9b2)"><g clip-path="url(#c820ec5bae)"><path fill="#616161" d="M 190.738281 200.917969 C 155.109375 209.699219 122.46875 215.515625 99.046875 217.722656 C 77.5 219.738281 63.757812 218.726562 62.632812 214.152344 C 61.542969 209.742188 72.378906 202.8125 91.089844 194.964844 C 92.953125 194.183594 94.160156 192.339844 94.101562 190.320312 C 94.101562 190.285156 94.101562 190.25 94.101562 190.214844 C 94.007812 186.859375 90.675781 184.5625 87.519531 185.707031 C 39.570312 203.097656 9.15625 220.421875 11.761719 230.988281 C 14.425781 241.808594 51.097656 242.820312 103.667969 235.367188 C 105.578125 235.097656 107.476562 235.953125 108.507812 237.582031 C 129.375 270.648438 169.773438 288.246094 209.824219 278.378906 C 260.445312 265.90625 275.664062 231.625 279.625 205.476562 C 281.910156 190.402344 278.078125 179.398438 190.738281 200.917969 Z M 190.738281 200.917969 " fill-opacity="1" fill-rule="nonzero"/></g></g></g><g clip-path="url(#e7b66bad47)"><g clip-path="url(#e5b3742a1a)"><g clip-path="url(#de8b01a294)"><path fill="#616161" d="M 363.199219 144.398438 C 360.476562 133.347656 322.367188 132.527344 268.082031 140.480469 C 247.738281 105.683594 206.253906 86.867188 165.132812 97 C 122.683594 107.457031 105.40625 134.433594 98.5 157.253906 C 93.691406 173.136719 94.667969 187.925781 182.222656 166.351562 C 217.296875 157.710938 249.464844 151.949219 272.804688 149.667969 C 294.976562 147.492188 309.183594 148.464844 310.332031 153.121094 C 311.335938 157.199219 302.136719 163.433594 285.929688 170.570312 C 282.339844 172.152344 280.210938 175.871094 280.550781 179.78125 C 280.554688 179.84375 280.5625 179.90625 280.566406 179.96875 C 281.074219 185.976562 287.242188 189.785156 292.886719 187.675781 C 337.675781 170.964844 365.703125 154.550781 363.199219 144.398438 Z M 363.199219 144.398438 " fill-opacity="1" fill-rule="nonzero"/></g></g></g><g fill="#f2f015" fill-opacity="1"><g transform="translate(82.795182, 209.199732)"><g><path d="M 30.6875 -49.765625 C 39.601562 -49.765625 46.410156 -47.675781 51.109375 -43.5 C 55.804688 -39.320312 58.15625 -32.929688 58.15625 -24.328125 L 58.15625 -21.203125 L 21.65625 -21.203125 C 21.65625 -17.703125 22.4375 -15.054688 24 -13.265625 C 25.570312 -11.484375 28.050781 -10.59375 31.4375 -10.59375 C 34.507812 -10.59375 36.765625 -11.238281 38.203125 -12.53125 C 39.648438 -13.820312 40.375 -15.546875 40.375 -17.703125 L 58.15625 -17.703125 C 58.15625 -11.796875 55.910156 -7.179688 51.421875 -3.859375 C 46.941406 -0.546875 40.398438 1.109375 31.796875 1.109375 C 22.765625 1.109375 15.757812 -0.992188 10.78125 -5.203125 C 5.800781 -9.410156 3.3125 -15.785156 3.3125 -24.328125 C 3.3125 -32.691406 5.738281 -39.019531 10.59375 -43.3125 C 15.445312 -47.613281 22.144531 -49.765625 30.6875 -49.765625 Z M 31.4375 -38.0625 C 25.65625 -38.0625 22.425781 -35.328125 21.75 -29.859375 L 39.640625 -29.859375 C 39.640625 -32.378906 38.914062 -34.375 37.46875 -35.84375 C 36.019531 -37.320312 34.007812 -38.0625 31.4375 -38.0625 Z M 31.4375 -38.0625 "/></g></g></g><g fill="#f2f015" fill-opacity="1"><g transform="translate(139.01423, 209.199732)"><g><path d="M 29.59375 -49.765625 C 37.019531 -49.765625 43.066406 -48.519531 47.734375 -46.03125 C 52.410156 -43.550781 54.75 -39.515625 54.75 -33.921875 L 54.75 -14.9375 C 54.75 -13.882812 54.992188 -13.019531 55.484375 -12.34375 C 55.972656 -11.675781 56.710938 -11.34375 57.703125 -11.34375 L 61.015625 -11.34375 L 61.015625 -0.734375 C 60.828125 -0.609375 60.347656 -0.40625 59.578125 -0.125 C 58.816406 0.144531 57.726562 0.414062 56.3125 0.6875 C 54.90625 0.96875 53.28125 1.109375 51.4375 1.109375 C 47.875 1.109375 44.9375 0.570312 42.625 -0.5 C 40.320312 -1.582031 38.738281 -3.078125 37.875 -4.984375 C 35.539062 -3.140625 32.929688 -1.660156 30.046875 -0.546875 C 27.160156 0.554688 23.78125 1.109375 19.90625 1.109375 C 8.476562 1.109375 2.765625 -3.4375 2.765625 -12.53125 C 2.765625 -17.257812 4.039062 -20.867188 6.59375 -23.359375 C 9.144531 -25.847656 12.816406 -27.550781 17.609375 -28.46875 C 22.398438 -29.394531 28.664062 -29.859375 36.40625 -29.859375 L 36.40625 -32.265625 C 36.40625 -34.171875 35.742188 -35.613281 34.421875 -36.59375 C 33.097656 -37.570312 31.394531 -38.0625 29.3125 -38.0625 C 27.40625 -38.0625 25.757812 -37.722656 24.375 -37.046875 C 23 -36.378906 22.3125 -35.304688 22.3125 -33.828125 L 22.3125 -33.453125 L 4.234375 -33.453125 C 4.171875 -33.765625 4.140625 -34.195312 4.140625 -34.75 C 4.140625 -39.351562 6.335938 -43.003906 10.734375 -45.703125 C 15.128906 -48.410156 21.414062 -49.765625 29.59375 -49.765625 Z M 36.40625 -21.203125 C 31.1875 -21.203125 27.332031 -20.632812 24.84375 -19.5 C 22.351562 -18.363281 21.109375 -16.84375 21.109375 -14.9375 C 21.109375 -11.863281 23.195312 -10.328125 27.375 -10.328125 C 29.769531 -10.328125 31.875 -10.96875 33.6875 -12.25 C 35.5 -13.539062 36.40625 -15.140625 36.40625 -17.046875 Z M 36.40625 -21.203125 "/></g></g></g><g fill="#f2f015" fill-opacity="1"><g transform="translate(195.233278, 209.199732)"><g><path d="M 28.671875 -49.765625 C 35.179688 -49.765625 40.691406 -48.488281 45.203125 -45.9375 C 49.722656 -43.394531 51.984375 -39.453125 51.984375 -34.109375 L 34.9375 -34.109375 C 34.9375 -35.890625 34.132812 -37.144531 32.53125 -37.875 C 31.425781 -38.488281 30.046875 -38.796875 28.390625 -38.796875 C 23.960938 -38.796875 21.75 -37.753906 21.75 -35.671875 C 21.75 -34.503906 22.515625 -33.671875 24.046875 -33.171875 C 25.585938 -32.679688 28.109375 -32.160156 31.609375 -31.609375 C 35.910156 -30.992188 39.503906 -30.269531 42.390625 -29.4375 C 45.285156 -28.613281 47.804688 -27.140625 49.953125 -25.015625 C 52.109375 -22.898438 53.1875 -19.9375 53.1875 -16.125 C 53.1875 -9.925781 50.863281 -5.503906 46.21875 -2.859375 C 41.582031 -0.210938 35.515625 1.109375 28.015625 1.109375 C 23.710938 1.109375 19.65625 0.507812 15.84375 -0.6875 C 12.039062 -1.882812 8.941406 -3.742188 6.546875 -6.265625 C 4.148438 -8.785156 2.953125 -11.984375 2.953125 -15.859375 L 20 -15.859375 L 20 -15.484375 C 20.0625 -13.390625 20.9375 -11.925781 22.625 -11.09375 C 24.3125 -10.269531 26.109375 -9.859375 28.015625 -9.859375 C 33.117188 -9.859375 35.671875 -11.054688 35.671875 -13.453125 C 35.671875 -14.679688 34.867188 -15.570312 33.265625 -16.125 C 31.671875 -16.675781 29.0625 -17.257812 25.4375 -17.875 C 21.070312 -18.613281 17.488281 -19.410156 14.6875 -20.265625 C 11.894531 -21.128906 9.453125 -22.59375 7.359375 -24.65625 C 5.273438 -26.71875 4.234375 -29.59375 4.234375 -33.28125 C 4.234375 -39.238281 6.492188 -43.472656 11.015625 -45.984375 C 15.535156 -48.503906 21.421875 -49.765625 28.671875 -49.765625 Z M 28.671875 -49.765625 "/></g></g></g><g fill="#f2f015" fill-opacity="1"><g transform="translate(246.291139, 209.199732)"><g><path d="M 38.984375 -1.46875 C 36.460938 5.34375 33.375 10.515625 29.71875 14.046875 C 26.0625 17.585938 20.945312 19.359375 14.375 19.359375 C 10.382812 19.359375 6.851562 18.804688 3.78125 17.703125 L 3.78125 6.734375 L 11.15625 6.734375 C 15.757812 6.734375 18.492188 4.488281 19.359375 0 L 0 -48.671875 L 19.71875 -48.671875 L 29.03125 -16.3125 L 29.671875 -16.3125 L 38.25 -48.671875 L 56.3125 -48.671875 Z M 38.984375 -1.46875 "/></g></g></g><g clip-path="url(#f182e4ceb5)"><path fill="#616161" d="M 84.738281 159.996094 C 58.058594 164.910156 54.078125 168.890625 49.164062 195.570312 C 44.253906 168.890625 40.269531 164.910156 13.589844 159.996094 C 40.269531 155.085938 44.253906 151.101562 49.164062 124.421875 C 54.078125 151.101562 58.058594 155.085938 84.738281 159.996094 Z M 84.738281 159.996094 " fill-opacity="1" fill-rule="nonzero"/></g><g clip-path="url(#3661b9418f)"><path fill="#f2f015" d="M 68.671875 160 C 54.042969 162.691406 51.859375 164.875 49.167969 179.503906 C 46.472656 164.875 44.289062 162.691406 29.664062 160 C 44.289062 157.304688 46.472656 155.121094 49.167969 140.496094 C 51.859375 155.121094 54.042969 157.304688 68.671875 160 Z M 68.671875 160 " fill-opacity="1" fill-rule="nonzero"/></g><g clip-path="url(#7a3d3e4d71)"><path fill="#f2f015" d="M 371.34375 213.53125 C 345.824219 218.230469 342.019531 222.039062 337.320312 247.554688 C 332.621094 222.039062 328.816406 218.230469 303.296875 213.53125 C 328.816406 208.835938 332.621094 205.027344 337.320312 179.507812 C 342.019531 205.027344 345.824219 208.835938 371.34375 213.53125 Z M 371.34375 213.53125 " fill-opacity="1" fill-rule="nonzero"/></g><g clip-path="url(#a4c406c6a0)"><path fill="#616161" d="M 355.882812 213.535156 C 341.964844 216.097656 339.886719 218.175781 337.324219 232.097656 C 334.761719 218.175781 332.683594 216.097656 318.761719 213.535156 C 332.683594 210.972656 334.761719 208.894531 337.324219 194.972656 C 339.886719 208.894531 341.964844 210.972656 355.882812 213.535156 Z M 355.882812 213.535156 " fill-opacity="1" fill-rule="nonzero"/></g><g fill="#e4e2dd" fill-opacity="1"><g transform="translate(189.453467, 225.691748)"><g><path d="M 12.6875 -11.25 L 10.703125 0 L 7.78125 0 L 8.546875 -4.375 L 4.046875 -4.375 L 3.28125 0 L 0.34375 0 L 2.328125 -11.25 L 5.265625 -11.25 L 4.453125 -6.65625 L 8.953125 -6.65625 L 9.765625 -11.25 Z M 12.6875 -11.25 "/></g></g></g><g fill="#e4e2dd" fill-opacity="1"><g transform="translate(201.363486, 225.691748)"><g><path d="M 7.609375 -11.46875 C 8.765625 -11.46875 9.738281 -11.253906 10.53125 -10.828125 C 11.332031 -10.410156 11.941406 -9.832031 12.359375 -9.09375 C 12.773438 -8.363281 12.984375 -7.53125 12.984375 -6.59375 C 12.984375 -5.539062 12.816406 -4.59375 12.484375 -3.75 C 12.148438 -2.90625 11.679688 -2.1875 11.078125 -1.59375 C 10.484375 -1.007812 9.789062 -0.554688 9 -0.234375 C 8.207031 0.078125 7.351562 0.234375 6.4375 0.234375 C 5.289062 0.234375 4.316406 0.0195312 3.515625 -0.40625 C 2.710938 -0.832031 2.101562 -1.414062 1.6875 -2.15625 C 1.269531 -2.894531 1.0625 -3.722656 1.0625 -4.640625 C 1.0625 -5.703125 1.226562 -6.65625 1.5625 -7.5 C 1.894531 -8.34375 2.359375 -9.054688 2.953125 -9.640625 C 3.554688 -10.234375 4.253906 -10.6875 5.046875 -11 C 5.835938 -11.3125 6.691406 -11.46875 7.609375 -11.46875 Z M 6.53125 -1.921875 C 7.09375 -1.921875 7.585938 -2.054688 8.015625 -2.328125 C 8.441406 -2.609375 8.789062 -2.972656 9.0625 -3.421875 C 9.34375 -3.878906 9.550781 -4.378906 9.6875 -4.921875 C 9.820312 -5.460938 9.890625 -5.992188 9.890625 -6.515625 C 9.890625 -7.335938 9.6875 -8.007812 9.28125 -8.53125 C 8.882812 -9.0625 8.296875 -9.328125 7.515625 -9.328125 C 6.953125 -9.328125 6.457031 -9.1875 6.03125 -8.90625 C 5.601562 -8.625 5.25 -8.257812 4.96875 -7.8125 C 4.695312 -7.363281 4.492188 -6.867188 4.359375 -6.328125 C 4.222656 -5.785156 4.15625 -5.25 4.15625 -4.71875 C 4.15625 -3.894531 4.351562 -3.222656 4.75 -2.703125 C 5.15625 -2.179688 5.75 -1.921875 6.53125 -1.921875 Z M 6.53125 -1.921875 "/></g></g></g><g fill="#e4e2dd" fill-opacity="1"><g transform="translate(214.022998, 225.691748)"><g><path d="M 12.296875 -11.25 L 11.265625 -5.265625 C 11.191406 -4.890625 11.132812 -4.585938 11.09375 -4.359375 C 11.050781 -4.140625 10.988281 -3.859375 10.90625 -3.515625 C 10.726562 -2.785156 10.441406 -2.140625 10.046875 -1.578125 C 9.648438 -1.015625 9.09375 -0.570312 8.375 -0.25 C 7.664062 0.0703125 6.738281 0.234375 5.59375 0.234375 C 4.550781 0.234375 3.691406 0.0859375 3.015625 -0.203125 C 2.335938 -0.503906 1.835938 -0.898438 1.515625 -1.390625 C 1.191406 -1.890625 1.03125 -2.445312 1.03125 -3.0625 C 1.03125 -3.363281 1.046875 -3.675781 1.078125 -4 C 1.117188 -4.332031 1.191406 -4.804688 1.296875 -5.421875 L 2.328125 -11.25 L 5.265625 -11.25 L 4.0625 -4.40625 C 4.03125 -4.226562 4.003906 -4.0625 3.984375 -3.90625 C 3.960938 -3.757812 3.953125 -3.609375 3.953125 -3.453125 C 3.953125 -2.953125 4.132812 -2.570312 4.5 -2.3125 C 4.863281 -2.050781 5.296875 -1.921875 5.796875 -1.921875 C 6.378906 -1.921875 6.851562 -2.046875 7.21875 -2.296875 C 7.59375 -2.554688 7.863281 -3.035156 8.03125 -3.734375 C 8.050781 -3.828125 8.070312 -3.921875 8.09375 -4.015625 C 8.113281 -4.117188 8.140625 -4.25 8.171875 -4.40625 L 9.375 -11.25 Z M 12.296875 -11.25 "/></g></g></g><g fill="#e4e2dd" fill-opacity="1"><g transform="translate(225.2324, 225.691748)"><g><path d="M 6.1875 -11.46875 C 7.175781 -11.46875 7.96875 -11.304688 8.5625 -10.984375 C 9.15625 -10.660156 9.578125 -10.21875 9.828125 -9.65625 C 10.085938 -9.09375 10.195312 -8.46875 10.15625 -7.78125 L 7.21875 -7.78125 C 7.238281 -8.238281 7.144531 -8.609375 6.9375 -8.890625 C 6.738281 -9.179688 6.398438 -9.328125 5.921875 -9.328125 C 5.535156 -9.328125 5.210938 -9.222656 4.953125 -9.015625 C 4.703125 -8.816406 4.578125 -8.519531 4.578125 -8.125 C 4.578125 -7.820312 4.734375 -7.554688 5.046875 -7.328125 C 5.359375 -7.109375 5.910156 -6.90625 6.703125 -6.71875 C 7.734375 -6.46875 8.476562 -6.082031 8.9375 -5.5625 C 9.394531 -5.039062 9.625 -4.425781 9.625 -3.71875 C 9.625 -3.0625 9.484375 -2.484375 9.203125 -1.984375 C 8.929688 -1.492188 8.550781 -1.082031 8.0625 -0.75 C 7.582031 -0.425781 7.039062 -0.179688 6.4375 -0.015625 C 5.832031 0.148438 5.203125 0.234375 4.546875 0.234375 C 3.640625 0.234375 2.847656 0.101562 2.171875 -0.15625 C 1.492188 -0.414062 0.976562 -0.816406 0.625 -1.359375 C 0.28125 -1.910156 0.15625 -2.601562 0.25 -3.4375 L 3.171875 -3.4375 C 3.171875 -2.90625 3.34375 -2.519531 3.6875 -2.28125 C 4.03125 -2.039062 4.421875 -1.921875 4.859375 -1.921875 C 5.304688 -1.921875 5.6875 -2.03125 6 -2.25 C 6.320312 -2.476562 6.484375 -2.769531 6.484375 -3.125 C 6.484375 -3.375 6.359375 -3.617188 6.109375 -3.859375 C 5.859375 -4.097656 5.441406 -4.296875 4.859375 -4.453125 C 3.773438 -4.734375 2.929688 -5.097656 2.328125 -5.546875 C 1.734375 -5.992188 1.4375 -6.644531 1.4375 -7.5 C 1.4375 -8.132812 1.566406 -8.695312 1.828125 -9.1875 C 2.085938 -9.6875 2.441406 -10.101562 2.890625 -10.4375 C 3.335938 -10.78125 3.84375 -11.035156 4.40625 -11.203125 C 4.976562 -11.378906 5.570312 -11.46875 6.1875 -11.46875 Z M 6.1875 -11.46875 "/></g></g></g><g fill="#e4e2dd" fill-opacity="1"><g transform="translate(234.942798, 225.691748)"><g><path d="M 4.859375 -8.96875 L 4.484375 -6.78125 L 9.6875 -6.78125 L 9.265625 -4.5 L 4.078125 -4.5 L 3.6875 -2.28125 L 9.375 -2.28125 L 8.96875 0 L 0.34375 0 L 2.328125 -11.25 L 10.78125 -11.25 L 10.375 -8.96875 Z M 4.859375 -8.96875 "/></g></g></g></svg>