<svg width="248" height="80" viewBox="0 0 248 80" fill="none" xmlns="http://www.w3.org/2000/svg">
<mask id="mask0_709_282" style="mask-type:luminance" maskUnits="userSpaceOnUse" x="80" y="30" width="27" height="23">
<path d="M80.1199 30.4896H106.578V52.1302H80.1199V30.4896Z" fill="white"/>
</mask>
<g mask="url(#mask0_709_282)">
<mask id="mask1_709_282" style="mask-type:luminance" maskUnits="userSpaceOnUse" x="80" y="30" width="27" height="23">
<path d="M90.9376 30.4896H95.724C98.5938 30.4896 101.344 31.6302 103.375 33.6615C105.406 35.6875 106.547 38.4427 106.547 41.3125C106.547 44.1823 105.406 46.9323 103.375 48.9584C101.344 50.9896 98.5938 52.1302 95.724 52.1302H90.9376C88.0678 52.1302 85.3178 50.9896 83.2865 48.9584C81.2605 46.9323 80.1199 44.1823 80.1199 41.3125C80.1199 38.4427 81.2605 35.6875 83.2865 33.6615C85.3178 31.6302 88.0678 30.4896 90.9376 30.4896Z" fill="white"/>
</mask>
<g mask="url(#mask1_709_282)">
<path d="M80.1199 30.4896H106.578V52.1302H80.1199V30.4896Z" fill="#F2F015"/>
</g>
</g>
<path d="M32.1261 0.451538C42.2616 0.451538 50.0063 2.83696 55.3553 7.59737C60.6991 12.3474 63.3761 19.6182 63.3761 29.4099V32.9724H21.8345C21.8345 36.962 22.7199 39.9672 24.5011 41.9932C26.2928 44.0245 29.1105 45.0349 32.9595 45.0349C36.4595 45.0349 39.0272 44.3057 40.6678 42.8474C42.3032 41.3786 43.1261 39.4099 43.1261 36.9515H63.3761C63.3761 43.6755 60.8188 48.9255 55.7095 52.7015C50.6105 56.4672 43.1678 58.3474 33.3761 58.3474C23.0949 58.3474 15.1261 55.962 9.45947 51.1807C3.79281 46.389 0.959473 39.1338 0.959473 29.4099C0.959473 19.8995 3.71989 12.6963 9.25114 7.8057C14.7772 2.90466 22.4022 0.451538 32.1261 0.451538ZM32.9595 13.7849C26.3866 13.7849 22.7147 16.8995 21.9386 23.1182H42.2928C42.2928 20.2432 41.4647 17.9724 39.8136 16.3057C38.173 14.6286 35.8866 13.7849 32.9595 13.7849Z" fill="#F2F015"/>
<path d="M94.8333 0.451538C103.292 0.451538 110.177 1.8682 115.5 4.70154C120.818 7.53487 123.479 12.1338 123.479 18.4932V40.0974C123.479 41.2953 123.755 42.2797 124.313 43.0557C124.865 43.8213 125.708 44.2015 126.833 44.2015H130.604V56.264C130.396 56.4047 129.854 56.6338 128.979 56.9515C128.104 57.2536 126.859 57.5609 125.25 57.8682C123.651 58.1859 121.802 58.3474 119.708 58.3474C115.651 58.3474 112.313 57.7328 109.688 56.514C107.063 55.2953 105.255 53.5974 104.271 51.4307C101.615 53.5297 98.6458 55.212 95.3542 56.4724C92.0729 57.7224 88.2344 58.3474 83.8333 58.3474C70.8177 58.3474 64.3125 53.1755 64.3125 42.8265C64.3125 37.4515 65.7604 33.3474 68.6667 30.514C71.5677 27.6807 75.7396 25.7432 81.1875 24.7015C86.6458 23.6495 93.7813 23.1182 102.604 23.1182V20.389C102.604 18.2224 101.844 16.587 100.333 15.4724C98.8333 14.3474 96.8958 13.7849 94.5208 13.7849C92.3542 13.7849 90.4792 14.1703 88.8958 14.9307C87.3229 15.6963 86.5417 16.9203 86.5417 18.5974V19.014H66C65.9271 18.6703 65.8958 18.1807 65.8958 17.5557C65.8958 12.3057 68.3958 8.14945 73.3958 5.07654C78.3958 1.9932 85.5417 0.451538 94.8333 0.451538ZM102.604 32.9724C96.6563 32.9724 92.2708 33.6182 89.4375 34.9099C86.6042 36.2015 85.1875 37.9307 85.1875 40.0974C85.1875 43.5974 87.5625 45.3474 92.3125 45.3474C95.0469 45.3474 97.4427 44.6182 99.5 43.1599C101.568 41.6911 102.604 39.8682 102.604 37.7015V32.9724Z" fill="#F2F015"/>
<path d="M157.77 0.451538C165.186 0.451538 171.462 1.90466 176.603 4.8057C181.738 7.71196 184.311 12.2015 184.311 18.2849H164.895C164.895 16.2588 163.983 14.8265 162.165 13.9932C160.915 13.2849 159.343 12.9307 157.457 12.9307C152.415 12.9307 149.895 14.1182 149.895 16.4932C149.895 17.8265 150.77 18.7797 152.52 19.3474C154.27 19.9047 157.134 20.4932 161.124 21.1182C166.009 21.8161 170.103 22.6338 173.395 23.5765C176.686 24.5245 179.551 26.2015 181.999 28.6182C184.441 31.0349 185.665 34.4099 185.665 38.7432C185.665 45.8005 183.025 50.837 177.749 53.8474C172.468 56.8474 165.566 58.3474 157.04 58.3474C152.134 58.3474 147.52 57.6651 143.186 56.3057C138.853 54.9463 135.316 52.837 132.582 49.9724C129.858 47.0974 128.499 43.462 128.499 39.0557H147.915V39.4724C147.983 41.8474 148.978 43.5088 150.895 44.4515C152.822 45.3995 154.874 45.8682 157.04 45.8682C162.843 45.8682 165.749 44.5088 165.749 41.7849C165.749 40.3838 164.837 39.3682 163.02 38.7432C161.197 38.1182 158.228 37.4515 154.103 36.7432C149.129 35.9099 145.051 35.0088 141.874 34.0349C138.691 33.0505 135.915 31.3838 133.54 29.0349C131.165 26.6911 129.978 23.4203 129.978 19.2224C129.978 12.4463 132.546 7.62862 137.686 4.76404C142.822 1.88904 149.52 0.451538 157.77 0.451538Z" fill="#F2F015"/>
<path d="M227.624 55.4099C224.749 63.1703 221.228 69.061 217.062 73.0766C212.905 77.1026 207.088 79.1182 199.603 79.1182C195.062 79.1182 191.041 78.4932 187.541 77.2432V64.7641H195.937C201.187 64.7641 204.296 62.2068 205.27 57.0974L183.249 1.72241H205.687L216.291 38.5349H217.02L226.791 1.72241H247.332L227.624 55.4099Z" fill="#F2F015"/>
<path d="M144.797 65.8417L143.089 75.4875H140.568L141.235 71.7375H137.36L136.714 75.4875H134.193L135.901 65.8417H138.422L137.714 69.7792H141.568L142.276 65.8417H144.797Z" fill="#E4E2DD"/>
<path d="M150.631 65.6542C151.615 65.6542 152.448 65.8365 153.131 66.1958C153.823 66.5604 154.35 67.0604 154.714 67.6958C155.073 68.3208 155.256 69.0292 155.256 69.8208C155.256 70.7271 155.11 71.5448 154.818 72.2792C154.527 73.0031 154.12 73.6125 153.61 74.1125C153.094 74.6125 152.495 75.0031 151.818 75.2792C151.136 75.5396 150.407 75.675 149.631 75.675C148.657 75.675 147.823 75.4927 147.131 75.1333C146.433 74.774 145.907 74.2792 145.547 73.6542C145.198 73.0188 145.027 72.3 145.027 71.5083C145.027 70.5917 145.162 69.774 145.443 69.05C145.735 68.3313 146.136 67.7167 146.652 67.2167C147.162 66.7167 147.761 66.3365 148.443 66.0708C149.12 65.7948 149.85 65.6542 150.631 65.6542ZM149.714 73.8417C150.198 73.8417 150.62 73.7271 150.985 73.4875C151.344 73.2531 151.641 72.9406 151.881 72.55C152.131 72.1646 152.308 71.7375 152.422 71.2792C152.532 70.8104 152.589 70.3521 152.589 69.9042C152.589 69.1958 152.412 68.6229 152.068 68.175C151.735 67.7167 151.225 67.4875 150.547 67.4875C150.058 67.4875 149.636 67.6073 149.277 67.8417C148.912 68.0813 148.615 68.3938 148.381 68.7792C148.141 69.1698 147.964 69.6021 147.839 70.0708C147.725 70.5292 147.672 70.9823 147.672 71.425C147.672 72.1333 147.844 72.7167 148.193 73.175C148.537 73.6229 149.047 73.8417 149.714 73.8417Z" fill="#E4E2DD"/>
<path d="M165.523 65.8417L164.628 70.9667C164.57 71.2896 164.523 71.5448 164.482 71.7375C164.44 71.9354 164.383 72.175 164.315 72.4667C164.159 73.0917 163.909 73.649 163.565 74.1333C163.232 74.6229 162.758 75.0031 162.148 75.2792C161.534 75.5396 160.737 75.675 159.753 75.675C158.862 75.675 158.128 75.55 157.544 75.3C156.971 75.05 156.544 74.7167 156.253 74.3C155.971 73.8729 155.836 73.3938 155.836 72.8625C155.836 72.6021 155.846 72.3313 155.878 72.05C155.919 71.774 155.987 71.3729 156.086 70.8417L156.961 65.8417H159.482L158.44 71.7167C158.409 71.8729 158.388 72.0083 158.378 72.1333C158.362 72.2583 158.357 72.3938 158.357 72.5292C158.357 72.9615 158.508 73.2896 158.815 73.5083C159.133 73.7323 159.508 73.8417 159.94 73.8417C160.424 73.8417 160.826 73.7323 161.148 73.5083C161.466 73.2896 161.701 72.8781 161.857 72.2792C161.867 72.1958 161.883 72.1125 161.898 72.0292C161.924 71.9458 161.945 71.8417 161.961 71.7167L163.003 65.8417H165.523Z" fill="#E4E2DD"/>
<path d="M169.882 65.6542C170.725 65.6542 171.402 65.7948 171.902 66.0708C172.413 66.3521 172.783 66.7323 173.007 67.2167C173.225 67.6906 173.319 68.2271 173.277 68.8208H170.757C170.783 68.4198 170.705 68.1021 170.527 67.8625C170.345 67.6125 170.053 67.4875 169.652 67.4875C169.319 67.4875 169.038 67.5813 168.819 67.7583C168.611 67.925 168.507 68.175 168.507 68.5083C168.507 68.774 168.637 69.0031 168.902 69.1958C169.163 69.3781 169.637 69.5604 170.319 69.7375C171.205 69.9458 171.845 70.274 172.236 70.7167C172.637 71.1646 172.84 71.6906 172.84 72.3C172.84 72.8573 172.715 73.3521 172.465 73.7792C172.225 74.1958 171.902 74.55 171.486 74.8417C171.08 75.1229 170.616 75.3313 170.09 75.4667C169.559 75.6021 169.017 75.675 168.465 75.675C167.699 75.675 167.027 75.5604 166.444 75.3417C165.861 75.1229 165.413 74.7792 165.111 74.3208C164.819 73.8521 164.705 73.2531 164.777 72.5292H167.298C167.298 72.9875 167.444 73.3208 167.736 73.5292C168.027 73.7375 168.361 73.8417 168.736 73.8417C169.111 73.8417 169.434 73.7479 169.715 73.55C169.991 73.3573 170.132 73.1073 170.132 72.8C170.132 72.5917 170.017 72.3833 169.798 72.175C169.59 71.9667 169.236 71.8 168.736 71.675C167.803 71.425 167.08 71.1125 166.569 70.7375C166.053 70.3521 165.798 69.7896 165.798 69.05C165.798 68.5083 165.908 68.0292 166.132 67.6125C166.35 67.1854 166.658 66.8208 167.048 66.5292C167.434 66.2375 167.871 66.024 168.361 65.8833C168.845 65.7323 169.35 65.6542 169.882 65.6542Z" fill="#E4E2DD"/>
<path d="M177.059 67.8L176.746 69.675H181.205L180.851 71.6333H176.392L176.059 73.5292H180.934L180.58 75.4875H173.184L174.892 65.8417H182.142L181.788 67.8H177.059Z" fill="#E4E2DD"/>
<mask id="mask2_709_282" style="mask-type:luminance" maskUnits="userSpaceOnUse" x="73" y="22" width="35" height="36">
<path d="M73.3333 22.6667H108V57.3334H73.3333V22.6667Z" fill="white"/>
</mask>
<g mask="url(#mask2_709_282)">
<mask id="mask3_709_282" style="mask-type:luminance" maskUnits="userSpaceOnUse" x="73" y="23" width="34" height="34">
<path d="M73.9634 23.3073L106.953 23.9792L106.286 56.974L73.2915 56.3021L73.9634 23.3073Z" fill="white"/>
</mask>
<g mask="url(#mask3_709_282)">
<mask id="mask4_709_282" style="mask-type:luminance" maskUnits="userSpaceOnUse" x="73" y="23" width="34" height="34">
<path d="M73.9634 23.3073L106.953 23.9792L106.286 56.974L73.2915 56.3021L73.9634 23.3073Z" fill="white"/>
</mask>
<g mask="url(#mask4_709_282)">
<path d="M106.864 40.6042C94.3539 42.6459 92.4581 44.4688 89.906 56.8855C87.8643 44.375 86.0414 42.4792 73.6248 39.9271C86.1352 37.8855 88.0362 36.0678 90.5831 23.6459C92.6248 36.1563 94.4477 38.0573 106.864 40.6042Z" fill="#616161"/>
</g>
</g>
</g>
<mask id="mask5_709_282" style="mask-type:luminance" maskUnits="userSpaceOnUse" x="82" y="32" width="16" height="16">
<path d="M82.6355 32.6562H97.6355V47.6563H82.6355V32.6562Z" fill="white"/>
</mask>
<g mask="url(#mask5_709_282)">
<path d="M97.8699 40.276C92.1563 41.3281 91.3022 42.1771 90.2553 47.8906C89.2032 42.1771 88.349 41.3281 82.6355 40.276C88.349 39.224 89.2032 38.3698 90.2553 32.6562C91.3022 38.3698 92.1563 39.224 97.8699 40.276Z" fill="#F2F015"/>
</g>
</svg>
